<svg width="24" height="24" viewBox="0 0 24 24" fill="none" xmlns="http://www.w3.org/2000/svg">
<path fill-rule="evenodd" clip-rule="evenodd" d="M4.61538 7C4.45217 7 4.29565 7.06438 4.18024 7.17899C4.06483 7.2936 4 7.44903 4 7.61111C4 7.77319 4.06483 7.92863 4.18024 8.04323C4.29565 8.15784 4.45217 8.22222 4.61538 8.22222H19.3846C19.5478 8.22222 19.7044 8.15784 19.8198 8.04323C19.9352 7.92863 20 7.77319 20 7.61111C20 7.44903 19.9352 7.2936 19.8198 7.17899C19.7044 7.06438 19.5478 7 19.3846 7H4.61538ZM4 12.5C4 12.3379 4.06483 12.1825 4.18024 12.0679C4.29565 11.9533 4.45217 11.8889 4.61538 11.8889H19.3846C19.5478 11.8889 19.7044 11.9533 19.8198 12.0679C19.9352 12.1825 20 12.3379 20 12.5C20 12.6621 19.9352 12.8175 19.8198 12.9321C19.7044 13.0467 19.5478 13.1111 19.3846 13.1111H4.61538C4.45217 13.1111 4.29565 13.0467 4.18024 12.9321C4.06483 12.8175 4 12.6621 4 12.5V12.5ZM4 17.3889C4 17.2268 4.06483 17.0714 4.18024 16.9568C4.29565 16.8422 4.45217 16.7778 4.61538 16.7778H19.3846C19.5478 16.7778 19.7044 16.8422 19.8198 16.9568C19.9352 17.0714 20 17.2268 20 17.3889C20 17.551 19.9352 17.7064 19.8198 17.821C19.7044 17.9356 19.5478 18 19.3846 18H4.61538C4.45217 18 4.29565 17.9356 4.18024 17.821C4.06483 17.7064 4 17.551 4 17.3889V17.3889Z" fill="black"/>
</svg>
