<svg width="24" height="24" viewBox="0 0 24 24" fill="none" xmlns="http://www.w3.org/2000/svg">
<path fill-rule="evenodd" clip-rule="evenodd" d="M9.24407 9.24407C9.97498 8.51316 10.9663 8.10254 12 8.10254C13.0336 8.10254 14.025 8.51316 14.7559 9.24407C15.4868 9.97498 15.8974 10.9663 15.8974 12C15.8974 13.0336 15.4868 14.025 14.7559 14.7559C14.025 15.4868 13.0336 15.8974 12 15.8974C10.9663 15.8974 9.97498 15.4868 9.24407 14.7559C8.51316 14.025 8.10254 13.0336 8.10254 12C8.10254 10.9663 8.51316 9.97498 9.24407 9.24407ZM12 9.33331C11.2927 9.33331 10.6145 9.61426 10.1144 10.1144C9.61426 10.6145 9.33331 11.2927 9.33331 12C9.33331 12.7072 9.61426 13.3855 10.1144 13.8856C10.6145 14.3857 11.2927 14.6666 12 14.6666C12.7072 14.6666 13.3855 14.3857 13.8856 13.8856C14.3857 13.3855 14.6666 12.7072 14.6666 12C14.6666 11.2927 14.3857 10.6145 13.8856 10.1144C13.3855 9.61426 12.7072 9.33331 12 9.33331Z" fill="black"/>
<path fill-rule="evenodd" clip-rule="evenodd" d="M8.71795 5.23077C7.79309 5.23077 6.90611 5.59817 6.25214 6.25214C5.59817 6.90611 5.23077 7.79309 5.23077 8.71795V15.2821C5.23077 16.2069 5.59817 17.0939 6.25214 17.7479C6.90611 18.4018 7.79309 18.7692 8.71795 18.7692H15.2821C16.2069 18.7692 17.0939 18.4018 17.7479 17.7479C18.4018 17.0939 18.7692 16.2069 18.7692 15.2821V8.71795C18.7692 7.79309 18.4018 6.90611 17.7479 6.25214C17.0939 5.59817 16.2069 5.23077 15.2821 5.23077H8.71795ZM5.38186 5.38186C6.26664 4.49707 7.46667 4 8.71795 4H15.2821C16.5333 4 17.7334 4.49707 18.6181 5.38186C19.5029 6.26664 20 7.46667 20 8.71795V15.2821C20 16.5333 19.5029 17.7334 18.6181 18.6181C17.7334 19.5029 16.5333 20 15.2821 20H8.71795C7.46667 20 6.26664 19.5029 5.38186 18.6181C4.49707 17.7334 4 16.5333 4 15.2821V8.71795C4 7.46667 4.49707 6.26664 5.38186 5.38186Z" fill="black"/>
<path fill-rule="evenodd" clip-rule="evenodd" d="M16.935 7.03114C17.1865 7.25976 17.205 7.64896 16.9764 7.90044L16.9682 7.90946C16.7396 8.16094 16.3504 8.17948 16.0989 7.95085C15.8474 7.72223 15.8289 7.33303 16.0575 7.08155L16.0657 7.07253C16.2943 6.82105 16.6835 6.80252 16.935 7.03114Z" fill="black"/>
</svg>
