<svg width="24" height="24" viewBox="0 0 24 24" fill="none" xmlns="http://www.w3.org/2000/svg">
<path d="M18.4 19H5.6C5.17565 19 4.76869 18.8288 4.46863 18.524C4.16857 18.2193 4 17.806 4 17.375V7.55431C4.01795 7.13571 4.19441 6.74032 4.49254 6.45069C4.79068 6.16107 5.18744 5.9996 5.6 6H18.4C18.8243 6 19.2313 6.17121 19.5314 6.47595C19.8314 6.7807 20 7.19402 20 7.625V17.375C20 17.806 19.8314 18.2193 19.5314 18.524C19.2313 18.8288 18.8243 19 18.4 19ZM5.6 9.14275V17.375H18.4V9.14275L12 13.475L5.6 9.14275ZM6.24 7.625L12 11.525L17.76 7.625H6.24Z" fill="black"/>
</svg>
