<svg width="24" height="24" viewBox="0 0 24 24" fill="none" xmlns="http://www.w3.org/2000/svg">
<path d="M20 12C20 14.1217 19.1571 16.1566 17.6569 17.6569C16.1566 19.1571 14.1217 20 12 20C9.87827 20 7.84344 19.1571 6.34315 17.6569C4.84285 16.1566 4 14.1217 4 12C4 9.87827 4.84285 7.84344 6.34315 6.34315C7.84344 4.84285 9.87827 4 12 4C14.1217 4 16.1566 4.84285 17.6569 6.34315C19.1571 7.84344 20 9.87827 20 12V12ZM12.287 9.906C11.509 10.23 9.953 10.9 7.621 11.916C7.243 12.066 7.044 12.214 7.026 12.358C6.996 12.601 7.301 12.697 7.716 12.828L7.891 12.883C8.299 13.016 8.849 13.171 9.134 13.177C9.394 13.183 9.683 13.077 10.002 12.857C12.181 11.386 13.306 10.643 13.376 10.627C13.426 10.615 13.496 10.601 13.542 10.643C13.589 10.684 13.584 10.763 13.579 10.784C13.549 10.913 12.352 12.025 11.733 12.601C11.54 12.781 11.403 12.908 11.375 12.937C11.3133 13 11.2507 13.062 11.187 13.123C10.807 13.489 10.523 13.763 11.202 14.211C11.529 14.427 11.791 14.604 12.052 14.782C12.336 14.976 12.62 15.169 12.988 15.411C13.081 15.471 13.171 15.536 13.258 15.598C13.589 15.834 13.888 16.046 14.255 16.012C14.469 15.992 14.69 15.792 14.802 15.192C15.067 13.775 15.588 10.706 15.708 9.441C15.7153 9.33584 15.711 9.2302 15.695 9.126C15.6856 9.04192 15.6449 8.96446 15.581 8.909C15.49 8.84619 15.3815 8.81365 15.271 8.816C14.971 8.821 14.508 8.982 12.287 9.906V9.906Z" fill="black"/>
</svg>
