<svg width="24" height="24" viewBox="0 0 24 24" fill="none" xmlns="http://www.w3.org/2000/svg">
<path d="M19.6332 7.64356C19.7449 7.27228 19.6331 7 19.1046 7H17.3535C16.908 7 16.7044 7.23555 16.5926 7.49425C16.5926 7.49425 15.7023 9.66528 14.4407 11.073C14.0335 11.4826 13.8475 11.6119 13.6255 11.6119C13.5145 11.6119 13.3532 11.4826 13.3532 11.1113V7.64356C13.3532 7.19802 13.2247 7 12.8534 7H10.1019C9.82401 7 9.65633 7.206 9.65633 7.40243C9.65633 7.82402 10.2871 7.92143 10.3518 9.10955V11.687C10.3518 12.2515 10.2504 12.3545 10.0268 12.3545C9.43356 12.3545 7.98993 10.1755 7.13318 7.68109C6.9663 7.19642 6.79782 7.0008 6.35068 7.0008H4.60045C4.09981 7.0008 4 7.23635 4 7.49505C4 7.95976 4.59326 10.2593 6.76349 13.3007C8.21031 15.3775 10.2472 16.5033 12.1028 16.5033C13.2151 16.5033 13.3524 16.2534 13.3524 15.8222V14.2525C13.3524 13.7526 13.4586 13.652 13.8107 13.652C14.0694 13.652 14.515 13.783 15.5538 14.7834C16.7403 15.97 16.9367 16.5025 17.6035 16.5025H19.3537C19.8535 16.5025 20.1034 16.2526 19.9597 15.7592C19.8024 15.2681 19.2355 14.5535 18.4834 13.7079C18.0745 13.2256 17.4637 12.7066 17.2777 12.4471C17.0182 12.1126 17.0932 11.9649 17.2777 11.6678C17.2785 11.6686 19.4112 8.6648 19.6332 7.64356V7.64356Z" fill="white"/>
</svg>
